# xmcd
#
# Track frame offsets:
#	150
#	16714
#	34499
#	51555
#	70858
#	87277
#	102793
#	117619
#	134897
#	151205
#	169484
#	188069
#	203546
#
# Disc length: 2944 seconds
#
# Revision: 1
# Processed by: cddbd v1.5.2PL0 Copyright (c) Steve Scherf et al.
# Submitted via: audiograbber 1.83.01
#
DISCID=b90b7e0d
DTITLE=Darius Rucker - Charleston, SC 1966
DYEAR=2010
DGENRE=Country
TTITLE0=This
TTITLE1=Come Back Song
TTITLE2=Might Get Lucky
TTITLE3=Wiskey And You
TTITLE4=Souther State of Mind
TTITLE5=Love Will Do That
TTITLE6=The Craziest Thing
TTITLE7=Things I'd Never Do
TTITLE8=We All Fall Down
TTITLE9=I Don't Care
TTITLE10=She's Beautiful
TTITLE11=I Got Nothin'
TTITLE12=In A Big Way
EXTD=
EXTT0=
EXTT1=
EXTT2=
EXTT3=
EXTT4=
EXTT5=
EXTT6=
EXTT7=
EXTT8=
EXTT9=
EXTT10=
EXTT11=
EXTT12=
PLAYORDER=
